# xmcd CD database file
#
# Track frame offsets:
#	150
#	7553
#	25703
#	40044
#	69937
#	93564
#	123493
#	131529
#	159000
#	166468
#	176985
#	185553
#	214390
#	242277
#	249489
#	273907
#	294229
#	306132
#	316287
#	329502
#
# Disc length: 4746 seconds
#
# Revision: 0
# Processed by: cddbd v1.5.1PL2 Copyright (c) Steve Scherf et al.
# Submitted via: CDex 1.51
#
DISCID=08128814
DTITLE=Chick Corea - The Ultimate Adventure
DYEAR=2006
DGENRE=Jazz
TTITLE0=Three Ghouls - Part 1
TTITLE1=Three Ghouls - Part 2
TTITLE2=Three Ghouls - Part 3
TTITLE3=City Of Brass
TTITLE4=Queen Tedmur
TTITLE5=El Stephen - Part 1
TTITLE6=El Stephen - Part 2
TTITLE7=King and Queen
TTITLE8=Moseb The Executioner - Part 1
TTITLE9=Moseb The Executioner - Part 2
TTITLE10=Moseb The Executioner - Part 3
TTITLE11=North Africa
TTITLE12=Flight From Karoof - Part 1
TTITLE13=Flight From Karoof - Part 2
TTITLE14=Planes Of Existence - Part 1
TTITLE15=Arabian Nights - Part 1
TTITLE16=Arabian Nights - Part 2
TTITLE17=God and Devils
TTITLE18=Planes Of Existence - Part 2
TTITLE19=Captain Marvel
EXTD=YEAR: 2006
EXTT0=
EXTT1=
EXTT2=
EXTT3=
EXTT4=
EXTT5=
EXTT6=
EXTT7=
EXTT8=
EXTT9=
EXTT10=
EXTT11=
EXTT12=
EXTT13=
EXTT14=
EXTT15=
EXTT16=
EXTT17=
EXTT18=
EXTT19=
PLAYORDER=
